<mxfile host="app.diagrams.net" agent="Mozilla/5.0 (Windows NT 10.0; Win64; x64) AppleWebKit/537.36 (KHTML, like Gecko) Chrome/129.0.0.0 Safari/537.36" version="24.7.17">
  <diagram name="Page-1" id="fGPEPZNpmN11wBwfVusz">
    <mxGraphModel dx="1288" dy="574" grid="1" gridSize="10" guides="1" tooltips="1" connect="1" arrows="1" fold="1" page="1" pageScale="1" pageWidth="827" pageHeight="4000" math="0" shadow="0">
      <root>
        <mxCell id="0" />
        <mxCell id="1" parent="0" />
        <mxCell id="IdnM9gt_aUwU3yYyP-xo-1" value="Look at position of response (opponent moves in position after make_move(x)) y to move x" style="rounded=1;whiteSpace=wrap;html=1;" parent="1" vertex="1">
          <mxGeometry x="273" y="120" width="120" height="80" as="geometry" />
        </mxCell>
        <mxCell id="IdnM9gt_aUwU3yYyP-xo-2" value="" style="endArrow=classic;html=1;rounded=0;exitX=0.5;exitY=1;exitDx=0;exitDy=0;entryX=0.5;entryY=0;entryDx=0;entryDy=0;" parent="1" source="IdnM9gt_aUwU3yYyP-xo-1" edge="1" target="v5ZTS_0GqzNmdO7vRvHx-14">
          <mxGeometry width="50" height="50" relative="1" as="geometry">
            <mxPoint x="303" y="230" as="sourcePoint" />
            <mxPoint x="333" y="220" as="targetPoint" />
          </mxGeometry>
        </mxCell>
        <mxCell id="mip7SkkwHUlIPyozDTx4-1" value="" style="endArrow=classic;html=1;rounded=0;exitX=0.5;exitY=1;exitDx=0;exitDy=0;entryX=0.5;entryY=0;entryDx=0;entryDy=0;" parent="1" edge="1">
          <mxGeometry width="50" height="50" relative="1" as="geometry">
            <mxPoint x="332.7" y="80" as="sourcePoint" />
            <mxPoint x="332.7" y="120" as="targetPoint" />
          </mxGeometry>
        </mxCell>
        <mxCell id="mip7SkkwHUlIPyozDTx4-2" value="Get all moves" style="rounded=1;whiteSpace=wrap;html=1;" parent="1" vertex="1">
          <mxGeometry x="273" y="20" width="120" height="60" as="geometry" />
        </mxCell>
        <mxCell id="v5ZTS_0GqzNmdO7vRvHx-14" value="x &amp;lt; moves.size" style="rhombus;whiteSpace=wrap;html=1;" parent="1" vertex="1">
          <mxGeometry x="273" y="240" width="120" height="80" as="geometry" />
        </mxCell>
        <mxCell id="v5ZTS_0GqzNmdO7vRvHx-15" value="" style="endArrow=classic;html=1;rounded=0;exitX=0.5;exitY=1;exitDx=0;exitDy=0;entryX=0.5;entryY=0;entryDx=0;entryDy=0;" parent="1" edge="1">
          <mxGeometry width="50" height="50" relative="1" as="geometry">
            <mxPoint x="332.73" y="320" as="sourcePoint" />
            <mxPoint x="332.73" y="360" as="targetPoint" />
          </mxGeometry>
        </mxCell>
        <mxCell id="v5ZTS_0GqzNmdO7vRvHx-16" value="No" style="edgeLabel;html=1;align=center;verticalAlign=middle;resizable=0;points=[];" parent="v5ZTS_0GqzNmdO7vRvHx-15" vertex="1" connectable="0">
          <mxGeometry x="0.0145" y="-1" relative="1" as="geometry">
            <mxPoint as="offset" />
          </mxGeometry>
        </mxCell>
        <mxCell id="v5ZTS_0GqzNmdO7vRvHx-21" value="" style="endArrow=classic;html=1;rounded=0;" parent="1" edge="1">
          <mxGeometry width="50" height="50" relative="1" as="geometry">
            <mxPoint x="393" y="279.75000000000006" as="sourcePoint" />
            <mxPoint x="433" y="279.75000000000006" as="targetPoint" />
          </mxGeometry>
        </mxCell>
        <mxCell id="v5ZTS_0GqzNmdO7vRvHx-22" value="Yes" style="edgeLabel;html=1;align=center;verticalAlign=middle;resizable=0;points=[];" parent="v5ZTS_0GqzNmdO7vRvHx-21" vertex="1" connectable="0">
          <mxGeometry x="-0.4016" y="-1" relative="1" as="geometry">
            <mxPoint as="offset" />
          </mxGeometry>
        </mxCell>
        <mxCell id="v5ZTS_0GqzNmdO7vRvHx-24" value="Passes risk check" style="rhombus;whiteSpace=wrap;html=1;" parent="1" vertex="1">
          <mxGeometry x="590" y="240" width="120" height="80" as="geometry" />
        </mxCell>
        <mxCell id="v5ZTS_0GqzNmdO7vRvHx-25" value="" style="endArrow=classic;html=1;rounded=0;" parent="1" edge="1">
          <mxGeometry width="50" height="50" relative="1" as="geometry">
            <mxPoint x="553" y="280.00000000000006" as="sourcePoint" />
            <mxPoint x="593" y="280.00000000000006" as="targetPoint" />
          </mxGeometry>
        </mxCell>
        <mxCell id="NgyidiC4HyY64g60j3rl-4" value="Yes" style="edgeLabel;html=1;align=center;verticalAlign=middle;resizable=0;points=[];" vertex="1" connectable="0" parent="v5ZTS_0GqzNmdO7vRvHx-25">
          <mxGeometry x="-0.2952" y="-3" relative="1" as="geometry">
            <mxPoint as="offset" />
          </mxGeometry>
        </mxCell>
        <mxCell id="v5ZTS_0GqzNmdO7vRvHx-27" value="Add move and its likelihood * success_eval ratio to 2d array" style="rounded=1;whiteSpace=wrap;html=1;" parent="1" vertex="1">
          <mxGeometry x="760" y="250" width="120" height="60" as="geometry" />
        </mxCell>
        <mxCell id="v5ZTS_0GqzNmdO7vRvHx-30" value="x++, y = 0" style="rounded=1;whiteSpace=wrap;html=1;" parent="1" vertex="1">
          <mxGeometry x="433" y="130" width="120" height="60" as="geometry" />
        </mxCell>
        <mxCell id="v5ZTS_0GqzNmdO7vRvHx-31" value="" style="endArrow=classic;html=1;rounded=0;exitX=0;exitY=0.5;exitDx=0;exitDy=0;entryX=1;entryY=0.5;entryDx=0;entryDy=0;" parent="1" source="v5ZTS_0GqzNmdO7vRvHx-30" target="IdnM9gt_aUwU3yYyP-xo-1" edge="1">
          <mxGeometry width="50" height="50" relative="1" as="geometry">
            <mxPoint x="570" y="240" as="sourcePoint" />
            <mxPoint x="620" y="190" as="targetPoint" />
          </mxGeometry>
        </mxCell>
        <mxCell id="v5ZTS_0GqzNmdO7vRvHx-32" value="" style="endArrow=classic;html=1;rounded=0;exitX=0.5;exitY=0;exitDx=0;exitDy=0;entryX=0.5;entryY=1;entryDx=0;entryDy=0;" parent="1" source="v5ZTS_0GqzNmdO7vRvHx-24" target="NgyidiC4HyY64g60j3rl-7" edge="1">
          <mxGeometry width="50" height="50" relative="1" as="geometry">
            <mxPoint x="527" y="180" as="sourcePoint" />
            <mxPoint x="650" y="210" as="targetPoint" />
          </mxGeometry>
        </mxCell>
        <mxCell id="v5ZTS_0GqzNmdO7vRvHx-33" value="No (Prunes)" style="edgeLabel;html=1;align=center;verticalAlign=middle;resizable=0;points=[];" parent="v5ZTS_0GqzNmdO7vRvHx-32" vertex="1" connectable="0">
          <mxGeometry x="0.0145" y="-1" relative="1" as="geometry">
            <mxPoint as="offset" />
          </mxGeometry>
        </mxCell>
        <mxCell id="v5ZTS_0GqzNmdO7vRvHx-36" value="Play move with highest ratio" style="rounded=1;whiteSpace=wrap;html=1;" parent="1" vertex="1">
          <mxGeometry x="273" y="360" width="120" height="60" as="geometry" />
        </mxCell>
        <mxCell id="v5ZTS_0GqzNmdO7vRvHx-37" value="Simple version&lt;div&gt;of up to depth 2&lt;/div&gt;" style="text;html=1;align=center;verticalAlign=middle;resizable=0;points=[];autosize=1;strokeColor=none;fillColor=none;" parent="1" vertex="1">
          <mxGeometry x="405" y="23" width="110" height="40" as="geometry" />
        </mxCell>
        <mxCell id="NgyidiC4HyY64g60j3rl-1" value="y &amp;lt; responses.size" style="rhombus;whiteSpace=wrap;html=1;" vertex="1" parent="1">
          <mxGeometry x="433" y="240" width="120" height="80" as="geometry" />
        </mxCell>
        <mxCell id="NgyidiC4HyY64g60j3rl-2" value="" style="endArrow=classic;html=1;rounded=0;entryX=0.5;entryY=1;entryDx=0;entryDy=0;" edge="1" parent="1" source="NgyidiC4HyY64g60j3rl-1" target="v5ZTS_0GqzNmdO7vRvHx-30">
          <mxGeometry width="50" height="50" relative="1" as="geometry">
            <mxPoint x="610" y="260" as="sourcePoint" />
            <mxPoint x="660" y="210" as="targetPoint" />
          </mxGeometry>
        </mxCell>
        <mxCell id="NgyidiC4HyY64g60j3rl-3" value="No" style="edgeLabel;html=1;align=center;verticalAlign=middle;resizable=0;points=[];" vertex="1" connectable="0" parent="NgyidiC4HyY64g60j3rl-2">
          <mxGeometry x="0.0055" y="-1" relative="1" as="geometry">
            <mxPoint as="offset" />
          </mxGeometry>
        </mxCell>
        <mxCell id="NgyidiC4HyY64g60j3rl-5" value="" style="edgeStyle=none;orthogonalLoop=1;jettySize=auto;html=1;rounded=0;exitX=1;exitY=0.5;exitDx=0;exitDy=0;entryX=0;entryY=0.5;entryDx=0;entryDy=0;" edge="1" parent="1" source="v5ZTS_0GqzNmdO7vRvHx-24" target="v5ZTS_0GqzNmdO7vRvHx-27">
          <mxGeometry width="100" relative="1" as="geometry">
            <mxPoint x="660" y="340" as="sourcePoint" />
            <mxPoint x="760" y="340" as="targetPoint" />
            <Array as="points" />
          </mxGeometry>
        </mxCell>
        <mxCell id="NgyidiC4HyY64g60j3rl-6" value="Yes" style="edgeLabel;html=1;align=center;verticalAlign=middle;resizable=0;points=[];" vertex="1" connectable="0" parent="NgyidiC4HyY64g60j3rl-5">
          <mxGeometry x="-0.1355" y="-2" relative="1" as="geometry">
            <mxPoint as="offset" />
          </mxGeometry>
        </mxCell>
        <mxCell id="NgyidiC4HyY64g60j3rl-7" value="y++" style="rounded=1;whiteSpace=wrap;html=1;" vertex="1" parent="1">
          <mxGeometry x="590" y="130" width="120" height="60" as="geometry" />
        </mxCell>
        <mxCell id="NgyidiC4HyY64g60j3rl-9" value="" style="endArrow=classic;html=1;rounded=0;entryX=1;entryY=0.5;entryDx=0;entryDy=0;exitX=0.5;exitY=0;exitDx=0;exitDy=0;" edge="1" parent="1" source="v5ZTS_0GqzNmdO7vRvHx-27" target="NgyidiC4HyY64g60j3rl-7">
          <mxGeometry width="50" height="50" relative="1" as="geometry">
            <mxPoint x="720" y="250" as="sourcePoint" />
            <mxPoint x="770" y="200" as="targetPoint" />
            <Array as="points">
              <mxPoint x="820" y="160" />
            </Array>
          </mxGeometry>
        </mxCell>
        <mxCell id="NgyidiC4HyY64g60j3rl-10" value="" style="endArrow=classic;html=1;rounded=0;exitX=0;exitY=0.5;exitDx=0;exitDy=0;entryX=1;entryY=0.5;entryDx=0;entryDy=0;" edge="1" parent="1" source="NgyidiC4HyY64g60j3rl-7" target="v5ZTS_0GqzNmdO7vRvHx-30">
          <mxGeometry width="50" height="50" relative="1" as="geometry">
            <mxPoint x="600" y="300" as="sourcePoint" />
            <mxPoint x="650" y="250" as="targetPoint" />
          </mxGeometry>
        </mxCell>
      </root>
    </mxGraphModel>
  </diagram>
</mxfile>
